<svg width="16" height="16" viewBox="0 0 16 16" fill="none" xmlns="http://www.w3.org/2000/svg">
<path d="M10 7.66675V3.66675L8 1.66675L6 3.66675V5.00008H2V14.3334H14V7.66675H10ZM4.66667 13.0001H3.33333V11.6667H4.66667V13.0001ZM4.66667 10.3334H3.33333V9.00008H4.66667V10.3334ZM4.66667 7.66675H3.33333V6.33341H4.66667V7.66675ZM8.66667 13.0001H7.33333V11.6667H8.66667V13.0001ZM8.66667 10.3334H7.33333V9.00008H8.66667V10.3334ZM8.66667 7.66675H7.33333V6.33341H8.66667V7.66675ZM8.66667 5.00008H7.33333V3.66675H8.66667V5.00008ZM12.6667 13.0001H11.3333V11.6667H12.6667V13.0001ZM12.6667 10.3334H11.3333V9.00008H12.6667V10.3334Z" fill="#606060"/>
</svg>
