<svg width="16" height="16" viewBox="0 0 16 16" fill="none" xmlns="http://www.w3.org/2000/svg">
<path d="M12.2603 10.0399C11.1403 9.46659 9.68699 8.99992 8.00033 8.99992C6.31366 8.99992 4.86033 9.46659 3.74033 10.0399C3.07366 10.3799 2.66699 11.0666 2.66699 11.8133V13.6666H13.3337V11.8133C13.3337 11.0666 12.927 10.3799 12.2603 10.0399ZM12.0003 12.3333H4.00033V11.8133C4.00033 11.5599 4.13366 11.3333 4.34699 11.2266C5.14033 10.8199 6.42033 10.3333 8.00033 10.3333C9.58033 10.3333 10.8603 10.8199 11.6537 11.2266C11.867 11.3333 12.0003 11.5599 12.0003 11.8133V12.3333Z" fill="#606060"/>
<path d="M8.00033 8.33325C9.47366 8.33325 10.667 7.13992 10.667 5.66659C10.667 4.75325 10.667 3.33325 10.667 3.33325C10.667 2.77992 10.2203 2.33325 9.66699 2.33325C9.32033 2.33325 9.01366 2.51325 8.83366 2.77992C8.65366 2.51325 8.34699 2.33325 8.00033 2.33325C7.65366 2.33325 7.34699 2.51325 7.16699 2.77992C6.98699 2.51325 6.68033 2.33325 6.33366 2.33325C5.78033 2.33325 5.33366 2.77992 5.33366 3.33325C5.33366 3.33325 5.33366 4.74659 5.33366 5.66659C5.33366 7.13992 6.52699 8.33325 8.00033 8.33325ZM6.66699 3.99992H9.33366V5.66659C9.33366 6.39992 8.73366 6.99992 8.00033 6.99992C7.26699 6.99992 6.66699 6.39992 6.66699 5.66659V3.99992Z" fill="#606060"/>
</svg>
