<svg width="16" height="16" viewBox="0 0 16 16" fill="none" xmlns="http://www.w3.org/2000/svg">
<path d="M12.2593 10.0399C11.1393 9.46659 9.68602 8.99992 7.99935 8.99992C6.31268 8.99992 4.85935 9.46659 3.73935 10.0399C3.07268 10.3799 2.66602 11.0666 2.66602 11.8133V13.6666H13.3327V11.8133C13.3327 11.0666 12.926 10.3799 12.2593 10.0399ZM11.9993 12.3333H3.99935V11.8133C3.99935 11.5599 4.13268 11.3333 4.34602 11.2266C5.13935 10.8199 6.41935 10.3333 7.99935 10.3333C9.57935 10.3333 10.8593 10.8199 11.6527 11.2266C11.866 11.3333 11.9993 11.5599 11.9993 11.8133V12.3333Z" fill="#606060"/>
<path d="M7.99935 8.33325C9.47268 8.33325 10.666 7.13992 10.666 5.66659C10.666 4.75325 10.666 3.33325 10.666 3.33325C10.666 2.77992 10.2193 2.33325 9.66602 2.33325C9.31935 2.33325 9.01268 2.51325 8.83268 2.77992C8.65268 2.51325 8.34602 2.33325 7.99935 2.33325C7.65268 2.33325 7.34602 2.51325 7.16602 2.77992C6.98602 2.51325 6.67935 2.33325 6.33268 2.33325C5.77935 2.33325 5.33268 2.77992 5.33268 3.33325C5.33268 3.33325 5.33268 4.74659 5.33268 5.66659C5.33268 7.13992 6.52602 8.33325 7.99935 8.33325ZM6.66602 3.99992H9.33268V5.66659C9.33268 6.39992 8.73268 6.99992 7.99935 6.99992C7.26602 6.99992 6.66602 6.39992 6.66602 5.66659V3.99992Z" fill="#606060"/>
</svg>
