<svg width="16" height="16" viewBox="0 0 16 16" fill="none" xmlns="http://www.w3.org/2000/svg">
<path d="M10.666 0.666748H5.33268C4.41268 0.666748 3.66602 1.41341 3.66602 2.33341V13.6667C3.66602 14.5867 4.41268 15.3334 5.33268 15.3334H10.666C11.586 15.3334 12.3327 14.5867 12.3327 13.6667V2.33341C12.3327 1.41341 11.586 0.666748 10.666 0.666748ZM7.99935 14.6667C7.44602 14.6667 6.99935 14.2201 6.99935 13.6667C6.99935 13.1134 7.44602 12.6667 7.99935 12.6667C8.55268 12.6667 8.99935 13.1134 8.99935 13.6667C8.99935 14.2201 8.55268 14.6667 7.99935 14.6667ZM10.9993 12.0001H4.99935V2.66675H10.9993V12.0001Z" fill="#606060"/>
</svg>
