<svg width="21" height="20" viewBox="0 0 21 20" fill="none" xmlns="http://www.w3.org/2000/svg">
<path d="M15 1.82501C17.5277 1.82501 19.5 3.7973 19.5 6.32501C19.5 7.88654 18.8066 9.38171 17.3818 11.1248C15.9459 12.8815 13.8736 14.7653 11.2793 17.1229L10.502 17.824L9.72363 17.1151L9.72168 17.1141L7.875 15.4324C6.12989 13.828 4.6952 12.4396 3.61816 11.1229C2.19361 9.38121 1.5 7.88653 1.5 6.32501C1.5 3.7973 3.47228 1.82501 6 1.82501C7.43712 1.82501 8.83187 2.49901 9.73828 3.56329L10.5 4.45782L11.2617 3.56329C12.1681 2.49901 13.5629 1.82501 15 1.82501Z" fill="#2A3626"/>
<path d="M15 1.82501C17.5277 1.82501 19.5 3.7973 19.5 6.32501C19.5 7.88654 18.8066 9.38171 17.3818 11.1248C15.9459 12.8815 13.8736 14.7653 11.2793 17.1229L10.502 17.824L9.72363 17.1151L9.72168 17.1141L7.875 15.4324C6.12989 13.828 4.6952 12.4396 3.61816 11.1229C2.19361 9.38121 1.5 7.88653 1.5 6.32501C1.5 3.7973 3.47228 1.82501 6 1.82501C7.43712 1.82501 8.83187 2.49901 9.73828 3.56329L10.5 4.45782L11.2617 3.56329C12.1681 2.49901 13.5629 1.82501 15 1.82501Z" fill="black" fill-opacity="0.2"/>
<path d="M15 1.82501C17.5277 1.82501 19.5 3.7973 19.5 6.32501C19.5 7.88654 18.8066 9.38171 17.3818 11.1248C15.9459 12.8815 13.8736 14.7653 11.2793 17.1229L10.502 17.824L9.72363 17.1151L9.72168 17.1141L7.875 15.4324C6.12989 13.828 4.6952 12.4396 3.61816 11.1229C2.19361 9.38121 1.5 7.88653 1.5 6.32501C1.5 3.7973 3.47228 1.82501 6 1.82501C7.43712 1.82501 8.83187 2.49901 9.73828 3.56329L10.5 4.45782L11.2617 3.56329C12.1681 2.49901 13.5629 1.82501 15 1.82501Z" stroke="white" stroke-width="2"/>
</svg>
