<svg width="20" height="20" viewBox="0 0 20 20" fill="none" xmlns="http://www.w3.org/2000/svg">
<path d="M14.5 1.82501C17.0277 1.82501 19 3.7973 19 6.32501C19 7.88654 18.3066 9.38171 16.8818 11.1248C15.4459 12.8815 13.3736 14.7653 10.7793 17.1229L10.002 17.824L9.22363 17.1151L9.22168 17.1141L7.375 15.4324C5.62989 13.828 4.1952 12.4396 3.11816 11.1229C1.69361 9.38121 1 7.88653 1 6.32501C1 3.7973 2.97228 1.82501 5.5 1.82501C6.93712 1.82501 8.33187 2.49901 9.23828 3.56329L10 4.45782L10.7617 3.56329C11.6681 2.49901 13.0629 1.82501 14.5 1.82501Z" fill="white" stroke="#404040" stroke-width="2"/>
</svg>
