<svg width="20" height="20" viewBox="0 0 20 20" fill="none" xmlns="http://www.w3.org/2000/svg">
<path d="M10 19.175L8.55 17.855C3.4 13.185 0 10.105 0 6.32501C0 3.24501 2.42 0.825012 5.5 0.825012C7.24 0.825012 8.91 1.63501 10 2.91501C11.09 1.63501 12.76 0.825012 14.5 0.825012C17.58 0.825012 20 3.24501 20 6.32501C20 10.105 16.6 13.185 11.45 17.865L10 19.175Z" fill="white"/>
<path d="M14.5 1.82501C17.0277 1.82501 19 3.7973 19 6.32501C19 7.88654 18.3066 9.38171 16.8818 11.1248C15.4459 12.8815 13.3736 14.7653 10.7793 17.1229L10.002 17.824L9.22363 17.1151L9.22168 17.1141L7.375 15.4324C5.62989 13.828 4.1952 12.4396 3.11816 11.1229C1.69361 9.38121 1 7.88653 1 6.32501C1 3.7973 2.97228 1.82501 5.5 1.82501C6.93712 1.82501 8.33187 2.49901 9.23828 3.56329L10 4.45782L10.7617 3.56329C11.6681 2.49901 13.0629 1.82501 14.5 1.82501Z" stroke="#1B1F26" stroke-opacity="0.72" stroke-width="2"/>
</svg>
