<svg width="12" height="12" viewBox="0 0 12 12" fill="none" xmlns="http://www.w3.org/2000/svg">
<path d="M10.2601 8.03992C9.14008 7.46659 7.68675 6.99992 6.00008 6.99992C4.31341 6.99992 2.86008 7.46659 1.74008 8.03992C1.07341 8.37992 0.666748 9.06659 0.666748 9.81325V11.6666H11.3334V9.81325C11.3334 9.06659 10.9267 8.37992 10.2601 8.03992ZM10.0001 10.3333H2.00008V9.81325C2.00008 9.55992 2.13341 9.33325 2.34675 9.22659C3.14008 8.81992 4.42008 8.33325 6.00008 8.33325C7.58008 8.33325 8.86008 8.81992 9.65341 9.22659C9.86675 9.33325 10.0001 9.55992 10.0001 9.81325V10.3333Z" fill="#D1D9CF"/>
<path d="M6.00008 6.33325C7.47341 6.33325 8.66675 5.13992 8.66675 3.66659C8.66675 2.75325 8.66675 1.33325 8.66675 1.33325C8.66675 0.779919 8.22008 0.333252 7.66675 0.333252C7.32008 0.333252 7.01341 0.513252 6.83341 0.779919C6.65341 0.513252 6.34675 0.333252 6.00008 0.333252C5.65341 0.333252 5.34675 0.513252 5.16675 0.779919C4.98675 0.513252 4.68008 0.333252 4.33341 0.333252C3.78008 0.333252 3.33341 0.779919 3.33341 1.33325C3.33341 1.33325 3.33341 2.74659 3.33341 3.66659C3.33341 5.13992 4.52675 6.33325 6.00008 6.33325ZM4.66675 1.99992H7.33341V3.66659C7.33341 4.39992 6.73341 4.99992 6.00008 4.99992C5.26675 4.99992 4.66675 4.39992 4.66675 3.66659V1.99992Z" fill="#D1D9CF"/>
</svg>
