<svg width="21" height="20" viewBox="0 0 21 20" fill="none" xmlns="http://www.w3.org/2000/svg">
<path d="M15 1.82495C17.5277 1.82495 19.5 3.79724 19.5 6.32495C19.5 7.88648 18.8066 9.38165 17.3818 11.1248C15.9459 12.8814 13.8736 14.7653 11.2793 17.1228L10.502 17.824L9.72363 17.115L9.72168 17.114L7.875 15.4324C6.12989 13.8279 4.6952 12.4396 3.61816 11.1228C2.19361 9.38115 1.5 7.88647 1.5 6.32495C1.5 3.79724 3.47228 1.82495 6 1.82495C7.43712 1.82495 8.83187 2.49895 9.73828 3.56323L10.5 4.45776L11.2617 3.56323C12.1681 2.49895 13.5629 1.82495 15 1.82495Z" fill="white" stroke="#0C0C0C" stroke-width="2"/>
</svg>
