<svg width="17" height="18" viewBox="0 0 17 18" fill="none" xmlns="http://www.w3.org/2000/svg">
<path d="M14.89 12.06C13.21 11.2 11.03 10.5 8.5 10.5C5.97 10.5 3.79 11.2 2.11 12.06C1.11 12.57 0.5 13.6 0.5 14.72V17.5H16.5V14.72C16.5 13.6 15.89 12.57 14.89 12.06ZM14.5 15.5H2.5V14.72C2.5 14.34 2.7 14 3.02 13.84C4.21 13.23 6.13 12.5 8.5 12.5C10.87 12.5 12.79 13.23 13.98 13.84C14.3 14 14.5 14.34 14.5 14.72V15.5Z" fill="white"/>
<path d="M8.5 9.5C10.71 9.5 12.5 7.71 12.5 5.5C12.5 4.13 12.5 2 12.5 2C12.5 1.17 11.83 0.5 11 0.5C10.48 0.5 10.02 0.77 9.75 1.17C9.48 0.77 9.02 0.5 8.5 0.5C7.98 0.5 7.52 0.77 7.25 1.17C6.98 0.77 6.52 0.5 6 0.5C5.17 0.5 4.5 1.17 4.5 2C4.5 2 4.5 4.12 4.5 5.5C4.5 7.71 6.29 9.5 8.5 9.5ZM6.5 3H10.5V5.5C10.5 6.6 9.6 7.5 8.5 7.5C7.4 7.5 6.5 6.6 6.5 5.5V3Z" fill="white"/>
</svg>
