<svg width="10" height="16" viewBox="0 0 10 16" fill="none" xmlns="http://www.w3.org/2000/svg">
<path d="M7.66699 0.666748H2.33366C1.41366 0.666748 0.666992 1.41341 0.666992 2.33341V13.6667C0.666992 14.5867 1.41366 15.3334 2.33366 15.3334H7.66699C8.58699 15.3334 9.33366 14.5867 9.33366 13.6667V2.33341C9.33366 1.41341 8.58699 0.666748 7.66699 0.666748ZM5.00033 14.6667C4.44699 14.6667 4.00033 14.2201 4.00033 13.6667C4.00033 13.1134 4.44699 12.6667 5.00033 12.6667C5.55366 12.6667 6.00033 13.1134 6.00033 13.6667C6.00033 14.2201 5.55366 14.6667 5.00033 14.6667ZM8.00033 12.0001H2.00033V2.66675H8.00033V12.0001Z" fill="#606060"/>
</svg>
