<svg width="20" height="20" viewBox="0 0 20 20" fill="none" xmlns="http://www.w3.org/2000/svg">
<path d="M14.5 1.82495C17.0277 1.82495 19 3.79724 19 6.32495C19 7.88648 18.3066 9.38165 16.8818 11.1248C15.4459 12.8814 13.3736 14.7653 10.7793 17.1228L10.002 17.824L9.22363 17.115L9.22168 17.114L7.375 15.4324C5.62989 13.8279 4.1952 12.4396 3.11816 11.1228C1.69361 9.38115 1 7.88647 1 6.32495C1 3.79724 2.97228 1.82495 5.5 1.82495C6.93712 1.82495 8.33187 2.49895 9.23828 3.56323L10 4.45776L10.7617 3.56323C11.6681 2.49895 13.0629 1.82495 14.5 1.82495Z" fill="white" stroke="#0C0C0C" stroke-width="2"/>
</svg>
